<svg id="Слой_1" data-name="Слой 1" xmlns="http://www.w3.org/2000/svg" width="15" height="10" viewBox="0 0 15 10"><defs><style>.cls-1{fill:#9f9f9f;fill-rule:evenodd;}</style></defs><path class="cls-1" d="M14.38,8.1a22.5,22.5,0,0,0-1.47-1.74A1,1,0,0,1,12.79,5c.4-.65.82-1.27,1.22-1.92A7.35,7.35,0,0,0,15,1.1c.13-.46,0-.66-.38-.75H12c-.29,0-.46.14-.56.45S11.14,1.61,11,2A10.43,10.43,0,0,1,9.58,4.53c-.13.16-.28.37-.49.28S8.73,4.17,8.74,4V.76C8.68.3,8.59.09,8.21,0H5.74a.75.75,0,0,0-.67.39c-.11.14-.14.23.07.28a.93.93,0,0,1,.71.89,12.08,12.08,0,0,1,0,2.33,2.49,2.49,0,0,1-.13.66c-.12.33-.31.4-.56.2A2.76,2.76,0,0,1,4.64,4,17.21,17.21,0,0,1,3.19.87C3.08.55,2.89.35,2.6.35c-.72,0-1.43,0-2.14,0C0,.36-.1.6.08,1.06A33.08,33.08,0,0,0,2.84,6.88,7.6,7.6,0,0,0,5,9.2,4.94,4.94,0,0,0,8.08,10c.51,0,.67-.19.69-.79A3.29,3.29,0,0,1,9,8c.17-.36.43-.43.73-.2a2.17,2.17,0,0,1,.39.41c.29.37.57.76.88,1.12a1.55,1.55,0,0,0,1.39.67h2.18c.35,0,.54-.54.33-1a4.93,4.93,0,0,0-.52-.89Zm0,0"/></svg>