<svg id="Слой_1" data-name="Слой 1" xmlns="http://www.w3.org/2000/svg" width="13" height="11" viewBox="0 0 13 11"><defs><style>.cls-1{fill:#9f9f9f;}</style></defs><path class="cls-1" d="M13,1.3a5.29,5.29,0,0,1-1.53.44A2.76,2.76,0,0,0,12.64.2a5.18,5.18,0,0,1-1.7.68A2.59,2.59,0,0,0,9,0,2.73,2.73,0,0,0,6.33,2.78a3.2,3.2,0,0,0,.07.63A7.52,7.52,0,0,1,.9.51a2.86,2.86,0,0,0-.36,1.4,2.8,2.8,0,0,0,1.19,2.3A2.5,2.5,0,0,1,.52,3.87v0A2.76,2.76,0,0,0,2.66,6.63a2.69,2.69,0,0,1-.7.09,2.07,2.07,0,0,1-.5,0A2.67,2.67,0,0,0,4,8.6,5.23,5.23,0,0,1,.63,9.79a4.44,4.44,0,0,1-.63,0A7.31,7.31,0,0,0,4.09,11a7.7,7.7,0,0,0,7.58-7.9V2.74A5.54,5.54,0,0,0,13,1.3Zm0,0"/></svg>