<svg id="Слой_1" data-name="Слой 1" xmlns="http://www.w3.org/2000/svg" width="33" height="33" viewBox="0 0 33 33"><defs><style>.cls-1{fill:#dd4b39;}</style></defs><path class="cls-1" d="M0,0V33H33V0ZM19.24,17.89a6.6,6.6,0,0,1-6.91,5.83,7.28,7.28,0,0,1,0-14.56,6.88,6.88,0,0,1,4.89,1.9l-2.09,2.09a3.85,3.85,0,0,0-2.8-1.1,4.37,4.37,0,0,0-4.28,4.39,4.31,4.31,0,0,0,4.28,4.33,3.66,3.66,0,0,0,3.92-2.88H12.33V15h6.89a9,9,0,0,1,.12,1.48,9.62,9.62,0,0,1-.1,1.45ZM28,17H25.43v2.55H23.62V17H21.07V15.17h2.55V12.62h1.81v2.55H28Zm0,0"/></svg>