<svg id="Слой_1" data-name="Слой 1" xmlns="http://www.w3.org/2000/svg" width="29" height="29" viewBox="0 0 29 29"><defs><style>.cls-1{fill:#c4302b;}.cls-2{fill:#fff;}</style></defs><path class="cls-1" d="M14.5,0A14.5,14.5,0,1,1,0,14.5,14.5,14.5,0,0,1,14.5,0Zm0,0"/><path class="cls-2" d="M14.15,11.78a1.68,1.68,0,0,0,1.08-.35,1,1,0,0,0,.39-.86V8.37a.94.94,0,0,0-.4-.79,1.59,1.59,0,0,0-1-.31,1.89,1.89,0,0,0-1.1.29.94.94,0,0,0-.41.79v2.2a1,1,0,0,0,.4.87,1.67,1.67,0,0,0,1.06.36Zm-.48-3.32a.24.24,0,0,1,.13-.21.68.68,0,0,1,.34-.08.74.74,0,0,1,.36.08.25.25,0,0,1,.14.21v2.09a.28.28,0,0,1-.14.24.64.64,0,0,1-.36.09.58.58,0,0,1-.35-.09.29.29,0,0,1-.12-.24Zm3.51,3.32a1,1,0,0,0,.5-.19,1.67,1.67,0,0,0,.49-.41v.49H19V7.26h-.86v3.35a1.48,1.48,0,0,1-.26.24.51.51,0,0,1-.24.09.18.18,0,0,1-.17-.07.35.35,0,0,1-.06-.23V7.26h-.85V11a1,1,0,0,0,.15.59.56.56,0,0,0,.44.24Zm2.49,1.82H9.33a2.92,2.92,0,0,0-3,2.86v2.42a2.93,2.93,0,0,0,3,2.87H19.67a2.93,2.93,0,0,0,3-2.87V16.46a2.92,2.92,0,0,0-3-2.86Zm-8.8,2.46H10v3.79H9.06V16.06H8.15v-.65h2.72v.65ZM13.6,19.9h-1v-.39a2.43,2.43,0,0,1-.55.33,1.38,1.38,0,0,1-.55.11.68.68,0,0,1-.5-.16.62.62,0,0,1-.17-.48v-3h1v2.75a.24.24,0,0,0,.06.18.28.28,0,0,0,.2.05.67.67,0,0,0,.27-.07,1.32,1.32,0,0,0,.29-.19V16.32h1V19.9Zm3.61-.68a.71.71,0,0,1-.22.54,1,1,0,0,1-.64.19,1.54,1.54,0,0,1-.5-.08,1.13,1.13,0,0,1-.4-.22v.25H14.5V15.41h.95v1.45a1.48,1.48,0,0,1,.4-.23,1.36,1.36,0,0,1,.44-.08,1,1,0,0,1,.68.21.78.78,0,0,1,.24.62Zm3.63-1H19.08v.65a.57.57,0,0,0,.09.37.4.4,0,0,0,.31.11.44.44,0,0,0,.32-.09.58.58,0,0,0,.1-.4V18.7h.94v.17a.92.92,0,0,1-.35.8,1.65,1.65,0,0,1-1,.27,1.5,1.5,0,0,1-1-.29.91.91,0,0,1-.36-.77V17.33a.88.88,0,0,1,.39-.73,1.75,1.75,0,0,1,1-.28,1.6,1.6,0,0,1,1,.26.9.9,0,0,1,.34.75v.88ZM10.35,11.79h1.08V9.16l1.26-3.72h-1.1L10.92,8h-.07l-.7-2.54H9.06l1.29,3.84v2.51Zm5.49,5.29-.2,0-.19.1v2.06a.69.69,0,0,0,.22.12l.23,0a.38.38,0,0,0,.26-.08.28.28,0,0,0,.08-.22V17.42a.35.35,0,0,0-.1-.26.45.45,0,0,0-.3-.08Zm0,0"/><path class="cls-2" d="M19.53,16.92a.44.44,0,0,0-.31.1.39.39,0,0,0-.1.31v.34h.82v-.34a.42.42,0,0,0-.1-.31.44.44,0,0,0-.31-.1Zm0,0"/></svg>