<svg id="Слой_1" data-name="Слой 1" xmlns="http://www.w3.org/2000/svg" width="29" height="29" viewBox="0 0 29 29"><defs><style>.cls-1{fill:#4d76a1;}.cls-2{fill:#fff;fill-rule:evenodd;}</style></defs><path class="cls-1" d="M29,14.5A14.5,14.5,0,1,1,14.5,0,14.5,14.5,0,0,1,29,14.5Zm0,0"/><path class="cls-2" d="M14,20.86h1.14a1,1,0,0,0,.52-.23.85.85,0,0,0,.16-.5s0-1.52.68-1.75,1.6,1.48,2.55,2.13a1.81,1.81,0,0,0,1.27.38l2.54,0s1.33-.08.7-1.13a9,9,0,0,0-1.89-2.19c-1.6-1.47-1.39-1.24.54-3.8,1.17-1.55,1.63-2.51,1.49-2.91s-1-.29-1-.29l-2.87,0a.67.67,0,0,0-.37.06.81.81,0,0,0-.25.31,15.68,15.68,0,0,1-1.06,2.23c-1.27,2.17-1.78,2.28-2,2.15-.48-.32-.36-1.26-.36-1.93,0-2.1.32-3-.62-3.2a4.45,4.45,0,0,0-1.34-.13,6,6,0,0,0-2.37.24c-.33.16-.58.51-.43.53a1.33,1.33,0,0,1,.85.43,2.77,2.77,0,0,1,.28,1.29s.17,2.47-.39,2.78c-.39.21-.92-.22-2.06-2.18a18.8,18.8,0,0,1-1-2.12.81.81,0,0,0-.23-.32A1.37,1.37,0,0,0,8,10.52l-2.72,0s-.41,0-.56.19,0,.48,0,.48,2.13,5,4.54,7.5A6.53,6.53,0,0,0,14,20.86Zm0,0"/></svg>