<svg id="Layer_1" data-name="Layer 1" xmlns="http://www.w3.org/2000/svg" width="55" height="55" viewBox="0 0 55 55"><defs><style>.cls-1{fill:#5f80ab;}.cls-2{fill:#e95c57;}</style></defs><path class="cls-1" d="M53.86,18.33s0,0,0,0H1.14A1.14,1.14,0,0,1,.57,16.2L28,.16a1.15,1.15,0,0,1,1.2,0l25,15.93A1.17,1.17,0,0,1,55,17.19,1.14,1.14,0,0,1,53.86,18.33ZM5.38,16h44.5L28.6,2.49Z"/><path class="cls-1" d="M53.81,55H1.14A1.14,1.14,0,0,1,0,53.85V47a1.15,1.15,0,0,1,1.14-1.15H53.81A1.15,1.15,0,0,1,55,47v6.87A1.14,1.14,0,0,1,53.81,55ZM2.29,52.71H52.66V48.13H2.29Z"/><path class="cls-2" d="M14.88,43.54H8A1.14,1.14,0,0,1,6.87,42.4V21.77A1.14,1.14,0,0,1,8,20.63h6.87A1.14,1.14,0,0,1,16,21.77V42.4A1.14,1.14,0,0,1,14.88,43.54ZM9.16,41.25h4.58V22.92H9.16Z"/><path class="cls-2" d="M8,22.92H5.72a1.15,1.15,0,0,1,0-2.29H8a1.15,1.15,0,1,1,0,2.29Z"/><path class="cls-2" d="M8,43.54H5.72a1.15,1.15,0,0,1,0-2.29H8a1.15,1.15,0,1,1,0,2.29Z"/><path class="cls-2" d="M17.17,43.54H14.88a1.15,1.15,0,0,1,0-2.29h2.29a1.15,1.15,0,1,1,0,2.29Z"/><path class="cls-2" d="M17.17,22.92H14.88a1.15,1.15,0,0,1,0-2.29h2.29a1.15,1.15,0,1,1,0,2.29Z"/><path class="cls-2" d="M30.91,43.54H24A1.14,1.14,0,0,1,22.9,42.4V21.77A1.14,1.14,0,0,1,24,20.63h6.87a1.15,1.15,0,0,1,1.15,1.14V42.4A1.14,1.14,0,0,1,30.91,43.54Zm-5.72-2.29h4.58V22.92H25.19Z"/><path class="cls-2" d="M24,22.92H21.75a1.15,1.15,0,0,1,0-2.29H24a1.15,1.15,0,1,1,0,2.29Z"/><path class="cls-2" d="M24,43.54H21.75a1.15,1.15,0,0,1,0-2.29H24a1.15,1.15,0,1,1,0,2.29Z"/><path class="cls-2" d="M33.2,43.54H30.91a1.15,1.15,0,0,1,0-2.29H33.2a1.15,1.15,0,1,1,0,2.29Z"/><path class="cls-2" d="M33.2,22.92H30.91a1.15,1.15,0,0,1,0-2.29H33.2a1.15,1.15,0,1,1,0,2.29Z"/><path class="cls-2" d="M46.94,43.54H40.07a1.14,1.14,0,0,1-1.14-1.14V21.77a1.14,1.14,0,0,1,1.14-1.14h6.87a1.14,1.14,0,0,1,1.14,1.14V42.4A1.14,1.14,0,0,1,46.94,43.54Zm-5.72-2.29H45.8V22.92H41.22Z"/><path class="cls-2" d="M40.07,22.92H37.78a1.15,1.15,0,0,1,0-2.29h2.29a1.15,1.15,0,1,1,0,2.29Z"/><path class="cls-2" d="M40.07,43.54H37.78a1.15,1.15,0,0,1,0-2.29h2.29a1.15,1.15,0,1,1,0,2.29Z"/><path class="cls-2" d="M49.23,43.54H46.94a1.15,1.15,0,0,1,0-2.29h2.29a1.15,1.15,0,0,1,0,2.29Z"/><path class="cls-2" d="M49.23,22.92H46.94a1.15,1.15,0,0,1,0-2.29h2.29a1.15,1.15,0,0,1,0,2.29Z"/></svg>