<svg id="Layer_1" data-name="Layer 1" xmlns="http://www.w3.org/2000/svg" width="51" height="53" viewBox="0 0 51 53"><defs><style>.cls-1{fill:#e95c57;}.cls-2{fill:#5f80ab;}</style></defs><path class="cls-1" d="M49.89,24.29a1.11,1.11,0,0,0-1.11,1.11V37.54h-10a1.11,1.11,0,0,0-1.1,1.11V51.9a1.11,1.11,0,0,0,2.21,0V43.06h8.87V51.9a1.11,1.11,0,0,0,2.22,0V25.4A1.11,1.11,0,0,0,49.89,24.29Zm-10,16.56v-1.1h8.87v1.1Z"/><path class="cls-1" d="M12.2,37.54h-10V25.4A1.11,1.11,0,0,0,0,25.4V51.9a1.11,1.11,0,0,0,2.22,0V43.06h8.87V51.9a1.11,1.11,0,0,0,2.21,0V38.65A1.11,1.11,0,0,0,12.2,37.54Zm-10,2.21h8.87v1.1H2.22Z"/><path class="cls-2" d="M50.27,11.11,26.61,2.54V1.1a1.11,1.11,0,0,0-2.22,0V2.54L.73,11.11a1.1,1.1,0,0,0-.73,1v2.2a1.11,1.11,0,0,0,1.11,1.11H24.39V29.81H10a1.11,1.11,0,0,0-1.11,1.11v3.31A1.11,1.11,0,0,0,10,35.33H22.17V50.79H18.85a1.11,1.11,0,1,0,0,2.21h13.3a1.11,1.11,0,1,0,0-2.21H28.83V35.33H41a1.11,1.11,0,0,0,1.11-1.1V30.92A1.11,1.11,0,0,0,41,29.81H26.61V15.46H49.89A1.11,1.11,0,0,0,51,14.35v-2.2A1.1,1.1,0,0,0,50.27,11.11ZM26.61,50.79H24.39V35.33h2.22Zm13.3-17.67H11.09V32H39.91Zm8.87-19.87H2.22v-.33L25.5,4.49l23.28,8.43Z"/></svg>