<svg id="Слой_1" data-name="Слой 1" xmlns="http://www.w3.org/2000/svg" width="100" height="109" viewBox="0 0 100 109"><defs><style>.cls-1{fill:#5e81ac;}.cls-2{fill:#ea5c57;}</style></defs><path class="cls-1" d="M85.54,82.18a1.69,1.69,0,0,0-2.29.71c-.1.19-.2.38-.31.56H76.15A56.25,56.25,0,0,0,78.06,77a1.7,1.7,0,1,0-3.3-.78,51.1,51.1,0,0,1-2.25,7.2h-13A133.22,133.22,0,0,0,61,64.72h8.48a1.71,1.71,0,0,0,0-3.41H61a132.36,132.36,0,0,0-1.8-20.43H71.82a52.74,52.74,0,0,1,2.06,5.6,1.69,1.69,0,0,0,1.62,1.2,1.66,1.66,0,0,0,.49-.07,1.71,1.71,0,0,0,1.13-2.13c-.48-1.59-1-3.12-1.62-4.6H82l.51.85a1.69,1.69,0,0,0,1.46.85,1.75,1.75,0,0,0,.85-.23A1.71,1.71,0,0,0,85.4,40c-.22-.39-.45-.76-.68-1.14A1.71,1.71,0,0,0,84,37.77a46.11,46.11,0,0,0-15-14.4A45.74,45.74,0,0,0,35.2,18.26,1.71,1.71,0,0,0,36,21.58c1.1-.26,2.21-.48,3.34-.65C36.55,24.6,34.43,30.55,33,37.47H19a1.62,1.62,0,0,0-.79,0H11.86c.42-.56.86-1.12,1.31-1.66a1.7,1.7,0,1,0-2.61-2.18,46.89,46.89,0,0,0-3.05,4.14,1.73,1.73,0,0,0-.71,1.12A46.33,46.33,0,0,0,0,63,45.73,45.73,0,0,0,86.24,84.48a1.7,1.7,0,0,0-.7-2.3ZM71,86.86a40.11,40.11,0,0,1-7.32,10.58,27.25,27.25,0,0,1-11,7.06c2.75-4,4.85-10.28,6.26-17.64ZM58.56,37.47c-1.4-6.63-3.38-12.27-5.91-15.94,7,2.26,13.2,7.91,17.52,15.94Zm8.69-11.16A42.71,42.71,0,0,1,79.66,37.47H74a42.35,42.35,0,0,0-9-12.43c.79.4,1.56.82,2.32,1.27ZM38.68,29.56c2.1-5.71,4.75-9.12,7.08-9.12,2.74,0,5.71,4.4,8,11.76.51,1.65,1,3.42,1.38,5.27H36.42a63.58,63.58,0,0,1,2.26-7.91ZM32.35,56.2a1.7,1.7,0,0,0,1.8-1.6,118.06,118.06,0,0,1,1.59-13.73h20a125.53,125.53,0,0,1,1.83,20.44H49.15a1.71,1.71,0,0,0,0,3.41h8.47a127.64,127.64,0,0,1-1.54,18.73H49.15a1.71,1.71,0,0,0,0,3.41h6.32c-.5,2.48-1.08,4.82-1.74,7-2.26,7.36-5.23,11.76-8,11.76-2.29,0-4.8-3.14-6.89-8.62a1.69,1.69,0,1,0-3.16,1.22,29.45,29.45,0,0,0,3.19,6.32c-7.61-2.45-14.15-8.9-18.4-17.66a1.7,1.7,0,0,0-.16-3.4H19a55.39,55.39,0,0,1-3.73-18.73h3.36a1.71,1.71,0,0,0,0-3.41H15.28a55,55,0,0,1,4.44-20.43H32.3A123.85,123.85,0,0,0,30.76,54.4a1.71,1.71,0,0,0,1.59,1.8ZM3.43,64.72h8.46a59.4,59.4,0,0,0,3.48,18.73H8.6A42.36,42.36,0,0,1,3.43,64.72ZM16,40.88a58.68,58.68,0,0,0-4.15,20.43H3.43A42.69,42.69,0,0,1,9.57,40.88Zm-5.37,46h6.08a47.25,47.25,0,0,0,4.87,8.47,39.76,39.76,0,0,0,5,5.65A42.72,42.72,0,0,1,10.67,86.86ZM64.86,101c.42-.39.83-.79,1.24-1.2a44.11,44.11,0,0,0,8.68-13h6.1a42.44,42.44,0,0,1-16,14.18Zm0,0"/><path class="cls-2" d="M17.66,33.75a1.68,1.68,0,0,0,1,.31,1.69,1.69,0,0,0,1-.33c.51-.37,12.55-9.36,12.55-20.11a13.56,13.56,0,1,0-27.12,0c0,11,12.07,19.76,12.58,20.13Zm1-30.34A10.2,10.2,0,0,1,28.81,13.62c0,7.4-7.44,14.29-10.18,16.57C15.9,28,8.47,21.17,8.47,13.62A10.21,10.21,0,0,1,18.64,3.41Zm0,0"/><path class="cls-2" d="M25.42,13.62a1.7,1.7,0,1,0-3.39,0,3.39,3.39,0,1,1-3.39-3.4,1.71,1.71,0,0,0,0-3.41,6.82,6.82,0,1,0,6.78,6.81Zm0,0"/><path class="cls-2" d="M86.44,46A13.61,13.61,0,0,0,72.88,59.61c0,11,12.06,19.75,12.58,20.12a1.67,1.67,0,0,0,2,0C88,79.34,100,70.36,100,59.61A13.61,13.61,0,0,0,86.44,46Zm0,30.2c-2.74-2.24-10.16-9-10.16-16.57a10.17,10.17,0,1,1,20.34,0c0,7.39-7.45,14.29-10.18,16.57Zm0,0"/><path class="cls-2" d="M91.53,57.91a1.7,1.7,0,0,0-1.7,1.7,3.39,3.39,0,1,1-3.39-3.41,1.7,1.7,0,0,0,0-3.4,6.81,6.81,0,1,0,6.78,6.81,1.7,1.7,0,0,0-1.69-1.7Zm0,0"/><path class="cls-2" d="M20.34,73.23c0,11,12.06,19.76,12.57,20.12a1.65,1.65,0,0,0,1,.32,1.69,1.69,0,0,0,1-.33C35.41,93,47.46,84,47.46,73.23a13.56,13.56,0,1,0-27.12,0ZM33.9,63A10.2,10.2,0,0,1,44.07,73.23c0,7.4-7.45,14.29-10.18,16.57-2.74-2.24-10.16-9-10.16-16.57A10.2,10.2,0,0,1,33.9,63Zm0,0"/><path class="cls-2" d="M33.9,80.05a6.81,6.81,0,0,0,6.78-6.82,1.7,1.7,0,1,0-3.39,0,3.39,3.39,0,1,1-3.39-3.4,1.71,1.71,0,0,0,0-3.41,6.82,6.82,0,0,0,0,13.63Zm0,0"/></svg>