<svg id="Слой_1" data-name="Слой 1" xmlns="http://www.w3.org/2000/svg" xmlns:xlink="http://www.w3.org/1999/xlink" width="67" height="47" viewBox="0 0 67 47"><defs><style>.cls-1{fill:none;}.cls-2{fill:#ea5c57;}.cls-3{fill:#5e81ac;}.cls-4{clip-path:url(#clip-path);}</style><clipPath id="clip-path"><path class="cls-1" d="M65.18,16.12V10.74A1.34,1.34,0,0,0,63.84,9.4h-2.7v-4A1.35,1.35,0,0,0,59.79,4H45a1.34,1.34,0,0,0-1.35,1.34v4H42.26V1.34A1.34,1.34,0,0,0,40.92,0H26.08a1.34,1.34,0,0,0-1.34,1.34V9.4H23.39v-4A1.35,1.35,0,0,0,22,4H8.56A1.35,1.35,0,0,0,7.21,5.37v4h-4a1.34,1.34,0,0,0-1.34,1.34V41.63A1.35,1.35,0,0,0,3.17,43H63.6a1.57,1.57,0,0,0,1.58-1.56V16.12ZM46.31,6.71H58.44V9.4H46.31Zm-18.88-4H39.57V9.4H27.43ZM9.9,6.71H20.69V9.4H9.9ZM27.43,40.29H19.34V18.8h8.09Zm10.79,0H30.13V18.8h8.09Zm10.79,0H40.92V18.8H49Zm13.48,0H51.7V17.46a1.35,1.35,0,0,0-1.35-1.34H18a1.34,1.34,0,0,0-1.34,1.34V40.29H4.51V12.09h58Z"/></clipPath></defs><rect class="cls-2" y="44.31" width="67" height="2.69"/><path class="cls-3" d="M65.18,16.12V10.74A1.34,1.34,0,0,0,63.84,9.4h-2.7v-4A1.35,1.35,0,0,0,59.79,4H45a1.34,1.34,0,0,0-1.35,1.34v4H42.26V1.34A1.34,1.34,0,0,0,40.92,0H26.08a1.34,1.34,0,0,0-1.34,1.34V9.4H23.39v-4A1.35,1.35,0,0,0,22,4H8.56A1.35,1.35,0,0,0,7.21,5.37v4h-4a1.34,1.34,0,0,0-1.34,1.34V41.63A1.35,1.35,0,0,0,3.17,43H63.6a1.57,1.57,0,0,0,1.58-1.56V16.12ZM46.31,6.71H58.44V9.4H46.31Zm-18.88-4H39.57V9.4H27.43ZM9.9,6.71H20.69V9.4H9.9ZM27.43,40.29H19.34V18.8h8.09Zm10.79,0H30.13V18.8h8.09Zm10.79,0H40.92V18.8H49Zm13.48,0H51.7V17.46a1.35,1.35,0,0,0-1.35-1.34H18a1.34,1.34,0,0,0-1.34,1.34V40.29H4.51V12.09h58Z"/><g class="cls-4"><rect class="cls-2" x="12.59" y="14.63" width="45.08" height="25.65"/></g></svg>