<svg id="Слой_1" data-name="Слой 1" xmlns="http://www.w3.org/2000/svg" viewBox="0 0 116.8 100.11"><path d="M108.52,8.08Q100.24,0,85.64,0A26.07,26.07,0,0,0,77.4,1.4a33.66,33.66,0,0,0-7.82,3.78c-2.42,1.59-4.49,3.08-6.23,4.47a59.67,59.67,0,0,0-5,4.43,59.8,59.8,0,0,0-5-4.43c-1.73-1.39-3.81-2.88-6.22-4.47A33.45,33.45,0,0,0,39.4,1.4,26.07,26.07,0,0,0,31.16,0Q16.55,0,8.28,8.08T0,30.5a28.64,28.64,0,0,0,1.53,9A39,39,0,0,0,5,47.38a57.26,57.26,0,0,0,4.43,6.36c1.65,2.06,2.86,3.49,3.62,4.27a21.06,21.06,0,0,0,1.79,1.69L55.53,98.94a4.11,4.11,0,0,0,5.74,0l40.6-39.11Q116.79,44.91,116.8,30.5T108.52,8.08ZM96.2,53.71,58.4,90.14,20.53,53.64Q8.35,41.46,8.34,30.5a28.31,28.31,0,0,1,1.41-9.32,18.13,18.13,0,0,1,3.58-6.42,17.2,17.2,0,0,1,5.31-3.88,24,24,0,0,1,6.13-2,38,38,0,0,1,6.39-.52A18.94,18.94,0,0,1,38.46,10a33.43,33.43,0,0,1,7.2,4.18q3.29,2.5,5.64,4.69a52.69,52.69,0,0,1,3.91,4,4.27,4.27,0,0,0,6.38,0,52.69,52.69,0,0,1,3.91-4q2.35-2.19,5.64-4.69A33.43,33.43,0,0,1,78.34,10a18.94,18.94,0,0,1,7.3-1.66A38,38,0,0,1,92,8.86a24,24,0,0,1,6.13,2,17.2,17.2,0,0,1,5.31,3.88,18.13,18.13,0,0,1,3.58,6.42,28.31,28.31,0,0,1,1.41,9.32q0,10.95-12.26,23.21Zm0,0"/></svg>