<svg xmlns="http://www.w3.org/2000/svg" style="display: none;">
  <symbol xmlns="http://www.w3.org/2000/svg" viewBox="0 0 22.92 21.81" id="libra">
    <defs>
      <clipPath id="a">
        <path fill="none" d="M0 0h23v22H0z"></path>
      </clipPath>
    </defs>
    <g clip-path="url(#a)">
      <path d="M21.06 8.3a1.158 1.158 0 10.27-2.3c-1.86 0-3.54.09-5.12-1a8.13 8.13 0 00-3-1.32 2.3 2.3 0 00.51-1.45A2.26 2.26 0 0011.44 0a2.26 2.26 0 00-2.31 2.3 2.3 2.3 0 00.51 1.45 7.88 7.88 0 00-2.95 1.32c-1.58 1.07-3.27 1-5.11 1a1.15 1.15 0 10.26 2.27C.71 10.25-.62 13.16.32 15.1c.39.8 1.31 1.75 3.55 1.75S7 15.9 7.42 15.1c1-2-.53-5.13-1.69-7a4 4 0 00.71-.25 16.61 16.61 0 002.24-1.34A3.74 3.74 0 0110.33 6v13.51h-2.8a1.15 1.15 0 100 2.3h7.91a1.14 1.14 0 001.12-1.3 1.16 1.16 0 00-1.16-1h-2.8V6a3.86 3.86 0 011.67.54 16.67 16.67 0 002.24 1.32 7.39 7.39 0 00.71.24c-1.16 1.9-2.68 5-1.69 7 .4.8 1.33 1.76 3.55 1.76s3.16-1 3.55-1.76c.94-1.94-.39-4.84-1.54-6.76zM2.1 13a13.23 13.23 0 011.77-4 12.66 12.66 0 011.75 4zm15.17 0A13 13 0 0119 9a13 13 0 011.77 4zm0 0"></path>
    </g>
  </symbol>
  <symbol xmlns="http://www.w3.org/2000/svg" viewBox="0 0 25 21" id="heart">
    <path d="M23.25 18.26L20 15.05a5.28 5.28 0 001.27-3.42 5.55 5.55 0 00-5.61-5.43A5.54 5.54 0 0010 11.63a5.55 5.55 0 005.65 5.43 5.76 5.76 0 003.16-.93l3.24 3.23a.81.81 0 00.59.24.78.78 0 00.57-.22.78.78 0 00.26-.55.79.79 0 00-.22-.57zm-3.6-6.63a4 4 0 01-8 0 4 4 0 018 0z"></path>
    <path d="M13.39 18.07l-.89.84-8.11-7.66Q1.8 8.7 1.79 6.4a5.89 5.89 0 01.3-2 3.8 3.8 0 01.76-1.3A3.54 3.54 0 014 2.28a5 5 0 011.3-.42 8.45 8.45 0 011.37-.11 4.14 4.14 0 011.56.35 7 7 0 011.54.9c.47.35.87.68 1.21 1a11.05 11.05 0 01.84.84.92.92 0 001.36 0A11.05 11.05 0 0114 4c.34-.31.74-.63 1.21-1a7 7 0 011.54-.87 4.14 4.14 0 011.56-.35 8.45 8.45 0 011.37.11 5 5 0 011.32.39 3.54 3.54 0 011.14.82 3.8 3.8 0 01.76 1.34 5.89 5.89 0 01.3 2 5.42 5.42 0 01-1 3 6.62 6.62 0 01.4 2.28v.08A8.16 8.16 0 0025 6.4a6.19 6.19 0 00-1.77-4.7 6.81 6.81 0 00-4.9-1.7 5.79 5.79 0 00-1.76.29 7.21 7.21 0 00-1.68.8c-.51.33-1 .64-1.33.93A13.55 13.55 0 0012.5 3a13.55 13.55 0 00-1.06-1c-.37-.29-.82-.6-1.33-.93A7.21 7.21 0 008.43.29 5.84 5.84 0 006.67 0a6.81 6.81 0 00-4.9 1.7A6.19 6.19 0 000 6.4a5.78 5.78 0 00.33 1.88 8.94 8.94 0 00.74 1.66 13 13 0 001 1.33c.36.43.61.73.78.9a4.62 4.62 0 00.38.35l8.71 8.23a.87.87 0 001.22 0l2.45-2.31a7.06 7.06 0 01-2.22-.37z"></path>
  </symbol>
  <symbol xmlns="http://www.w3.org/2000/svg" viewBox="0 0 22 22" id="star">
    <path d="M22 8.53c0-.35-.25-.56-.74-.64l-6.64-1-3-6.31C11.48.19 11.26 0 11 0s-.48.19-.65.57l-3 6.31-6.64 1C.25 8 0 8.18 0 8.53a1.08 1.08 0 00.33.66l4.81 4.91L4 21a2.05 2.05 0 000 .28.86.86 0 00.14.49.47.47 0 00.41.2 1 1 0 00.53-.17L11 18.56l5.94 3.27a1 1 0 00.52.17c.37 0 .55-.23.55-.69A1.8 1.8 0 0018 21l-1.14-6.9 4.8-4.91a1 1 0 00.34-.66zm-7 4.94l1 5.84-5-2.76-5 2.76 1-5.84-4-4.11 5.5-.86L11 3.2l2.5 5.3 5.58.86zm0 0"></path>
  </symbol>
  <symbol xmlns="http://www.w3.org/2000/svg" viewBox="0 0 20 23" id="user">
    <path d="M15.52 5.33A5.43 5.43 0 0110 10.67a5.43 5.43 0 01-5.52-5.34A5.43 5.43 0 0110 0a5.43 5.43 0 015.52 5.33zm-5.52 8A9.84 9.84 0 000 23h20a9.84 9.84 0 00-10-9.67zm0 0"></path>
  </symbol>
  <symbol xmlns="http://www.w3.org/2000/svg" viewBox="0 0 10 12" id="icon-map">
    <path d="M4.82 0A4.94 4.94 0 000 4.32 4.51 4.51 0 00.09 5.7v.15a5.11 5.11 0 00.34 1 14 14 0 004.26 5.1.45.45 0 00.56 0 13.77 13.77 0 004.29-5.16 4.29 4.29 0 00.34-1v-.15a4.43 4.43 0 00.09-.9A4.91 4.91 0 004.82 0zM5 7.17a2.38 2.38 0 01-2.43-2.33A2.38 2.38 0 015 2.52a2.38 2.38 0 012.43 2.32A2.38 2.38 0 015 7.17zm0 0"></path>
  </symbol>
  <symbol xmlns="http://www.w3.org/2000/svg" viewBox="0 0 409.6 307.2" id="icon-mail">
    <path d="M409.6 256a50.73 50.73 0 01-6.6 24.63l-129.3-144.7L401.62 24a50.82 50.82 0 018 27.2zm-204.8-93.8l178-155.75A50.53 50.53 0 00358.4 0H51.2a50.38 50.38 0 00-24.39 6.45zm49.63-9.43l-41.2 36.08a12.86 12.86 0 01-16.86 0l-41.21-36.08L24.2 299.32a50.54 50.54 0 0027 7.88h307.2a50.54 50.54 0 0027-7.88zM8 24a50.82 50.82 0 00-8 27.2V256a50.62 50.62 0 006.57 24.63L135.89 135.9zm0 0"></path>
  </symbol>
  <symbol xmlns="http://www.w3.org/2000/svg" viewBox="0 0 12.01 14.45" id="arrow">
    <path fill="none" stroke="#004b90" stroke-miterlimit="10" stroke-width="3" d="M.91 1.26l8.5 5.5-8.5 6.5"></path>
  </symbol>
  <symbol xmlns="http://www.w3.org/2000/svg" viewBox="0 0 44 45.57" id="search-icon">
    <path d="M43.33 41.51L32.48 30.23A18.39 18.39 0 1018.4 36.8a18.19 18.19 0 0010.54-3.33l10.93 11.37a2.4 2.4 0 001.73.73 2.35 2.35 0 001.66-.67 2.39 2.39 0 00.07-3.39zM18.4 4.8A13.6 13.6 0 114.8 18.4 13.61 13.61 0 0118.4 4.8zm0 0"></path>
  </symbol>
  <symbol xmlns="http://www.w3.org/2000/svg" viewBox="0 0 14.06 14.06" id="close-icon">
    <path stroke="#C84136" d="M.53.53l13 13m0-13l-13 13"></path>
  </symbol>
  <symbol xmlns="http://www.w3.org/2000/svg" viewBox="0 0 17.6 12" id="eye-icon">
    <path d="M8.8 0A9.43 9.43 0 000 6a9.45 9.45 0 0017.6 0 9.43 9.43 0 00-8.8-6zm0 10a4 4 0 01-4-4 4 4 0 018 0 4 4 0 01-4 4zm0-6.4A2.36 2.36 0 006.4 6a2.4 2.4 0 104.8 0 2.36 2.36 0 00-2.4-2.4zm0 0"></path>
  </symbol>
  <symbol xmlns="http://www.w3.org/2000/svg" viewBox="0 0 116.8 100.11" id="heart-icon">
    <path d="M108.52 8.08Q100.24 0 85.64 0a26.07 26.07 0 00-8.24 1.4 33.66 33.66 0 00-7.82 3.78c-2.42 1.59-4.49 3.08-6.23 4.47a59.67 59.67 0 00-5 4.43 59.8 59.8 0 00-5-4.43c-1.73-1.39-3.81-2.88-6.22-4.47A33.45 33.45 0 0039.4 1.4 26.07 26.07 0 0031.16 0Q16.55 0 8.28 8.08T0 30.5a28.64 28.64 0 001.53 9A39 39 0 005 47.38a57.26 57.26 0 004.43 6.36c1.65 2.06 2.86 3.49 3.62 4.27a21.06 21.06 0 001.79 1.69l40.69 39.24a4.11 4.11 0 005.74 0l40.6-39.11q14.92-14.92 14.93-29.33t-8.28-22.42zM96.2 53.71L58.4 90.14l-37.87-36.5Q8.35 41.46 8.34 30.5a28.31 28.31 0 011.41-9.32 18.13 18.13 0 013.58-6.42 17.2 17.2 0 015.31-3.88 24 24 0 016.13-2 38 38 0 016.39-.52 18.94 18.94 0 017.3 1.64 33.43 33.43 0 017.2 4.18q3.29 2.5 5.64 4.69a52.69 52.69 0 013.91 4 4.27 4.27 0 006.38 0 52.69 52.69 0 013.91-4q2.35-2.19 5.64-4.69a33.43 33.43 0 017.2-4.18 18.94 18.94 0 017.3-1.66 38 38 0 016.36.52 24 24 0 016.13 2 17.2 17.2 0 015.31 3.88 18.13 18.13 0 013.58 6.42 28.31 28.31 0 011.41 9.32q0 10.95-12.26 23.21zm0 0"></path>
  </symbol>
    <symbol xmlns="http://www.w3.org/2000/svg" viewBox="0 0 12 10.5" id="house-icon">
    <path d="M1.5 10.5h3.75v-3h1.5v3h3.75V6H12L6 0 0 6h1.5zm0 0"></path>
  </symbol>
  <symbol xmlns="http://www.w3.org/2000/svg" viewBox="0 0 45.28 45.18" id="phone-icon">
    <path d="M44.27 35.74l-7-7a3.64 3.64 0 00-5.14.1l-3.53 3.52-.68-.36a35.48 35.48 0 01-8.48-6.13 35.24 35.24 0 01-6.14-8.5l-.38-.67 2.36-2.36 1.17-1.17A3.64 3.64 0 0016.54 8l-7-7a3.65 3.65 0 00-5.15.09l-2 2 .05.06A11.28 11.28 0 00.87 6a11.94 11.94 0 00-.73 2.92c-.92 7.65 2.58 14.65 12.07 24.15 13.12 13.12 23.7 12.13 24.16 12.08a12.17 12.17 0 002.91-.73 11.45 11.45 0 002.86-1.62l2-2a3.64 3.64 0 00.09-5.14zm0 0"></path>
  </symbol>
  <symbol xmlns="http://www.w3.org/2000/svg" viewBox="0 0 77.73 77.73" id="clock-icon">
    <path d="M38.86 0a38.87 38.87 0 1038.87 38.86A38.9 38.9 0 0038.86 0zm0 69.46a30.6 30.6 0 1130.6-30.6 30.64 30.64 0 01-30.6 30.6zm0 0"></path>
    <path d="M59.12 37.66H41.65v-21a3.2 3.2 0 00-6.4 0v24.2a3.2 3.2 0 003.2 3.2h20.67a3.2 3.2 0 000-6.4zm0 0"></path>
  </symbol>
  <symbol xmlns="http://www.w3.org/2000/svg" viewBox="0 0 384.44 384.45" id="call-icon">
    <defs>
      <clipPath id="a" transform="translate(0 -.51)">
        <path fill="none" d="M0 0h384.96v385.92H0z"></path>
      </clipPath>
    </defs>
    <g clip-path="url(#a)">
      <path d="M292.28 254.32c-12.56-12.4-28.24-12.4-40.72 0-9.52 9.44-19 18.88-28.4 28.48-2.56 2.64-4.72 3.2-7.84 1.44-6.16-3.36-12.72-6.08-18.64-9.76-27.6-17.36-50.72-39.68-71.2-64.8-10.16-12.48-19.2-25.84-25.52-40.88-1.28-3-1-5 1.44-7.52 9.52-9.2 18.8-18.64 28.16-28.08 13-13.12 13-28.48-.08-41.68-7.44-7.52-14.88-14.88-22.32-22.4-7.68-7.68-15.28-15.44-23-23-12.56-12.24-28.24-12.24-40.72.08-9.6 9.44-18.8 19.12-28.56 28.4-9 8.56-13.6 19-14.56 31.28-1.52 19.92 3.36 38.72 10.24 57C24.6 200.8 46 234.49 72 265.36c35.12 41.76 77 74.8 126.08 98.64 22.08 10.72 45 19 69.84 20.32 17.12 1 32-3.36 43.92-16.72 8.16-9.12 17.36-17.44 26-26.16 12.8-13 12.88-28.64.16-41.44q-22.8-22.92-45.76-45.68zm0 0"></path>
    </g>
    <path d="M277 190.56l29.52-5A132.51 132.51 0 00194.44 76.8l-4.16 29.69A102.41 102.41 0 01277 190.56zm0 0"></path>
    <path d="M323.16 62.24A217.67 217.67 0 00198.36 0l-4.16 29.68a189.93 189.93 0 01160.72 155.81l29.52-5a219.26 219.26 0 00-61.28-118.25zm0 0"></path>
  </symbol>
  <symbol xmlns="http://www.w3.org/2000/svg" viewBox="0 0 8.97 12.78" id="geo-icon">
    <defs>
      <clipPath id="a">
        <path fill="none" d="M0 0h8.88v13H0z"></path>
      </clipPath>
    </defs>
    <g clip-path="url(#a)">
      <path d="M4.48 0A4.49 4.49 0 000 4.48 4.92 4.92 0 000 5c.38 3.5 4.15 7.54 4.15 7.54a.7.7 0 00.2.16h.25a.7.7 0 00.2-.16s3.76-4 4.13-7.54a5.27 5.27 0 000-.56A4.49 4.49 0 004.48 0zm3.66 5c-.29 2.69-2.81 5.84-3.62 6.79-.84-1-3.39-4.15-3.69-6.79a4.38 4.38 0 010-.47 3.69 3.69 0 017.37 0 4.38 4.38 0 010 .47zm0 0"></path>
    </g>
    <path d="M4.48 2.4a2.09 2.09 0 102.09 2.08A2.09 2.09 0 004.48 2.4zm0 3.37a1.29 1.29 0 111.29-1.29 1.29 1.29 0 01-1.29 1.29zm0 0"></path>
  </symbol>
  <symbol xmlns="http://www.w3.org/2000/svg" viewBox="0 0 305.69 232.18" id="mail-white-icon">
    <path d="M269.41 0H36.28C16.28 0 0 15.63 0 34.84v162.5c0 19.21 16.28 34.84 36.28 34.84h233.13c20 0 36.28-15.63 36.28-34.84V34.84C305.69 15.63 289.42 0 269.41 0zm0 201.42H36.28c-2.94 0-5.52-1.91-5.52-4.08v-141l105.44 89a12 12 0 007.74 2.83h17.81a12 12 0 007.74-2.83l105.44-89v141c0 2.17-2.58 4.08-5.52 4.08zm-116.56-83.79L50.3 30.76h205.1zm0 0"></path>
  </symbol>
  <symbol xmlns="http://www.w3.org/2000/svg" viewBox="0 0 12.8 12.8" id="loading-icon">
    <path d="M2.08 4.48A4.74 4.74 0 016.4 1.6a4.81 4.81 0 014.72 4h1.6A6.39 6.39 0 006.4 0 6.14 6.14 0 00.88 3.28L0 2.4v3.2h3.2zM12.8 7.2H9.52l1.2 1.12a4.77 4.77 0 01-4.4 2.88 4.88 4.88 0 01-4.72-4H0a6.46 6.46 0 006.32 5.6 6.53 6.53 0 005.6-3.28l.88.88zm0 0"></path>
  </symbol>
  <symbol xmlns="http://www.w3.org/2000/svg" viewBox="0 0 46.7 53.6" id="copy-icon">
    <path d="M45.8 13.22L32.1.57A1.79 1.79 0 0031 0H16.91C12.58 0 9.6 2.25 9.6 5.5v4.1H6.91C3 9.6 0 12.1 0 15.5v32c0 3.59 3.26 6.1 6.91 6.1H30.3a6.16 6.16 0 006.5-6.1V44h3.49c3.53 0 6.11-2.81 6.11-6.5V14.84s.19 0 .19-.06.11 0 .11-.08a1.51 1.51 0 00-.9-1.48zM32 5.33l8.92 7.47H32zm1.6 42.17c0 1.89-1.55 2.9-3.3 2.9H6.91c-1.86 0-3.71-1.1-3.71-2.9v-32c0-2.09 2.48-2.7 3.71-2.7H19.2v12.31c0 .88 1.12 1.29 2 1.29h12.4zm-1.83-24.3H22.4v-7.9zm8.52 17.6H36.8v-16a1.46 1.46 0 00-.32-1.18L22.54 10.81a1.53 1.53 0 00-1.39-.91s0-.14-.06-.14 0-.16-.07-.16H12.8V5.5c0-1.65 2.41-2.3 4.11-2.3H28.8v11.5c0 .89 1.12 1.3 2 1.3h12.4v21.5c0 1.92-1.15 3.3-2.91 3.3zm0 0"></path>
  </symbol>
  <symbol xmlns="http://www.w3.org/2000/svg" viewBox="0 0 14.4 12" id="share-arrow-icon">
    <path d="M8.8 3.2C3.2 4 .8 8 0 12c2-2.8 4.8-4.08 8.8-4.08v3.28l5.6-5.6L8.8 0v3.2zm0 0"></path>
  </symbol>
  <symbol xmlns="http://www.w3.org/2000/svg" viewBox="0 0 15.59 14.86" id="favorite-star-icon">
    <path d="M8.16.25l2 4.69 5.07.43a.4.4 0 01.23.7L11.6 9.41l1.15 5a.39.39 0 01-.59.43l-4.37-2.67-4.36 2.63a.4.4 0 01-.59-.43L4 9.41.14 6.07a.4.4 0 01.23-.7l5.07-.43 2-4.69a.39.39 0 01.73 0zm0 0"></path>
  </symbol>
  <symbol xmlns="http://www.w3.org/2000/svg" viewBox="0 0 394.18 341.45" id="valentines-heart-icon">
    <path d="M394.18 106.45a106.36 106.36 0 00-197.09-55.59A106.36 106.36 0 1036.53 186.59l150.84 150.84a13.75 13.75 0 0019.43 0l150.84-150.84a106.08 106.08 0 0036.54-80.14zm0 0"></path>
  </symbol>
</svg>