<svg xmlns="http://www.w3.org/2000/svg" style="display: none;">
  <symbol xmlns="http://www.w3.org/2000/svg" viewBox="0 0 22.92 21.81" id="libra">
    <defs>
      <clipPath id="a">
        <path fill="none" d="M0 0h23v22H0z"></path>
      </clipPath>
    </defs>
    <g clip-path="url(#a)">
      <path d="M21.06 8.3a1.158 1.158 0 10.27-2.3c-1.86 0-3.54.09-5.12-1a8.13 8.13 0 00-3-1.32 2.3 2.3 0 00.51-1.45A2.26 2.26 0 0011.44 0a2.26 2.26 0 00-2.31 2.3 2.3 2.3 0 00.51 1.45 7.88 7.88 0 00-2.95 1.32c-1.58 1.07-3.27 1-5.11 1a1.15 1.15 0 10.26 2.27C.71 10.25-.62 13.16.32 15.1c.39.8 1.31 1.75 3.55 1.75S7 15.9 7.42 15.1c1-2-.53-5.13-1.69-7a4 4 0 00.71-.25 16.61 16.61 0 002.24-1.34A3.74 3.74 0 0110.33 6v13.51h-2.8a1.15 1.15 0 100 2.3h7.91a1.14 1.14 0 001.12-1.3 1.16 1.16 0 00-1.16-1h-2.8V6a3.86 3.86 0 011.67.54 16.67 16.67 0 002.24 1.32 7.39 7.39 0 00.71.24c-1.16 1.9-2.68 5-1.69 7 .4.8 1.33 1.76 3.55 1.76s3.16-1 3.55-1.76c.94-1.94-.39-4.84-1.54-6.76zM2.1 13a13.23 13.23 0 011.77-4 12.66 12.66 0 011.75 4zm15.17 0A13 13 0 0119 9a13 13 0 011.77 4zm0 0"></path>
    </g>
  </symbol>
  <symbol xmlns="http://www.w3.org/2000/svg" viewBox="0 0 25 21" id="heart">
    <path d="M23.25 18.26L20 15.05a5.28 5.28 0 001.27-3.42 5.55 5.55 0 00-5.61-5.43A5.54 5.54 0 0010 11.63a5.55 5.55 0 005.65 5.43 5.76 5.76 0 003.16-.93l3.24 3.23a.81.81 0 00.59.24.78.78 0 00.57-.22.78.78 0 00.26-.55.79.79 0 00-.22-.57zm-3.6-6.63a4 4 0 01-8 0 4 4 0 018 0z" fill="#fff"></path>
    <path d="M13.39 18.07l-.89.84-8.11-7.66Q1.8 8.7 1.79 6.4a5.89 5.89 0 01.3-2 3.8 3.8 0 01.76-1.3A3.54 3.54 0 014 2.28a5 5 0 011.3-.42 8.45 8.45 0 011.37-.11 4.14 4.14 0 011.56.35 7 7 0 011.54.9c.47.35.87.68 1.21 1a11.05 11.05 0 01.84.84.92.92 0 001.36 0A11.05 11.05 0 0114 4c.34-.31.74-.63 1.21-1a7 7 0 011.54-.87 4.14 4.14 0 011.56-.35 8.45 8.45 0 011.37.11 5 5 0 011.32.39 3.54 3.54 0 011.14.82 3.8 3.8 0 01.76 1.34 5.89 5.89 0 01.3 2 5.42 5.42 0 01-1 3 6.62 6.62 0 01.4 2.28v.08A8.16 8.16 0 0025 6.4a6.19 6.19 0 00-1.77-4.7 6.81 6.81 0 00-4.9-1.7 5.79 5.79 0 00-1.76.29 7.21 7.21 0 00-1.68.8c-.51.33-1 .64-1.33.93A13.55 13.55 0 0012.5 3a13.55 13.55 0 00-1.06-1c-.37-.29-.82-.6-1.33-.93A7.21 7.21 0 008.43.29 5.84 5.84 0 006.67 0a6.81 6.81 0 00-4.9 1.7A6.19 6.19 0 000 6.4a5.78 5.78 0 00.33 1.88 8.94 8.94 0 00.74 1.66 13 13 0 001 1.33c.36.43.61.73.78.9a4.62 4.62 0 00.38.35l8.71 8.23a.87.87 0 001.22 0l2.45-2.31a7.06 7.06 0 01-2.22-.37z"></path>
  </symbol>
  <symbol xmlns="http://www.w3.org/2000/svg" viewBox="0 0 22 22" id="star">
    <path d="M22 8.53c0-.35-.25-.56-.74-.64l-6.64-1-3-6.31C11.48.19 11.26 0 11 0s-.48.19-.65.57l-3 6.31-6.64 1C.25 8 0 8.18 0 8.53a1.08 1.08 0 00.33.66l4.81 4.91L4 21a2.05 2.05 0 000 .28.86.86 0 00.14.49.47.47 0 00.41.2 1 1 0 00.53-.17L11 18.56l5.94 3.27a1 1 0 00.52.17c.37 0 .55-.23.55-.69A1.8 1.8 0 0018 21l-1.14-6.9 4.8-4.91a1 1 0 00.34-.66zm-7 4.94l1 5.84-5-2.76-5 2.76 1-5.84-4-4.11 5.5-.86L11 3.2l2.5 5.3 5.58.86zm0 0"></path>
  </symbol>
  <symbol xmlns="http://www.w3.org/2000/svg" viewBox="0 0 20 23" id="user">
    <path d="M15.52 5.33A5.43 5.43 0 0110 10.67a5.43 5.43 0 01-5.52-5.34A5.43 5.43 0 0110 0a5.43 5.43 0 015.52 5.33zm-5.52 8A9.84 9.84 0 000 23h20a9.84 9.84 0 00-10-9.67zm0 0"></path>
  </symbol>
  <symbol xmlns="http://www.w3.org/2000/svg" viewBox="0 0 10 12" id="icon-map">
    <path d="M4.82 0A4.94 4.94 0 000 4.32 4.51 4.51 0 00.09 5.7v.15a5.11 5.11 0 00.34 1 14 14 0 004.26 5.1.45.45 0 00.56 0 13.77 13.77 0 004.29-5.16 4.29 4.29 0 00.34-1v-.15a4.43 4.43 0 00.09-.9A4.91 4.91 0 004.82 0zM5 7.17a2.38 2.38 0 01-2.43-2.33A2.38 2.38 0 015 2.52a2.38 2.38 0 012.43 2.32A2.38 2.38 0 015 7.17zm0 0"></path>
  </symbol>
  <symbol xmlns="http://www.w3.org/2000/svg" viewBox="0 0 409.6 307.2" id="icon-mail">
    <path d="M409.6 256a50.73 50.73 0 01-6.6 24.63l-129.3-144.7L401.62 24a50.82 50.82 0 018 27.2zm-204.8-93.8l178-155.75A50.53 50.53 0 00358.4 0H51.2a50.38 50.38 0 00-24.39 6.45zm49.63-9.43l-41.2 36.08a12.86 12.86 0 01-16.86 0l-41.21-36.08L24.2 299.32a50.54 50.54 0 0027 7.88h307.2a50.54 50.54 0 0027-7.88zM8 24a50.82 50.82 0 00-8 27.2V256a50.62 50.62 0 006.57 24.63L135.89 135.9zm0 0"></path>
  </symbol>
  <symbol xmlns="http://www.w3.org/2000/svg" viewBox="0 0 12.01 14.45" id="arrow">
    <path fill="none" stroke="#004b90" stroke-miterlimit="10" stroke-width="3" d="M.91 1.26l8.5 5.5-8.5 6.5"></path>
  </symbol>
  <symbol xmlns="http://www.w3.org/2000/svg" viewBox="0 0 44 45.57" id="search-icon">
    <path d="M43.33 41.51L32.48 30.23A18.39 18.39 0 1018.4 36.8a18.19 18.19 0 0010.54-3.33l10.93 11.37a2.4 2.4 0 001.73.73 2.35 2.35 0 001.66-.67 2.39 2.39 0 00.07-3.39zM18.4 4.8A13.6 13.6 0 114.8 18.4 13.61 13.61 0 0118.4 4.8zm0 0"></path>
  </symbol>
  <symbol xmlns="http://www.w3.org/2000/svg" viewBox="0 0 14.06 14.06" id="close-icon">
    <path stroke="#C84136" d="M.53.53l13 13m0-13l-13 13"></path>
  </symbol>
</svg>