<svg id="Слой_1" data-name="Слой 1" xmlns="http://www.w3.org/2000/svg" width="224" height="77" viewBox="0 0 224 77"><defs><style>.cls-1{fill:#e83f32;}.cls-2,.cls-3{fill:#3c3c3b;}.cls-3{font-size:10.73px;font-family:Rubik-Regular, Rubik Regular;}.cls-15,.cls-3{letter-spacing:-0.02em;}.cls-4{letter-spacing:-0.01em;}.cls-5{letter-spacing:-0.02em;}.cls-6{letter-spacing:-0.01em;}.cls-7{letter-spacing:-0.01em;}.cls-8{letter-spacing:0.01em;}.cls-9{letter-spacing:-0.01em;}.cls-10{letter-spacing:-0.01em;}.cls-11{letter-spacing:0.01em;}.cls-12{letter-spacing:-0.01em;}.cls-13{letter-spacing:-0.01em;}.cls-14{letter-spacing:-0.02em;}.cls-16{letter-spacing:-0.01em;}</style></defs><path class="cls-1" d="M37.71,0A37,37,0,0,0,10.8,11.44,38.86,38.86,0,0,0,0,38.5,38.89,38.89,0,0,0,10.8,65.62,37,37,0,0,0,37.71,77c14.86,0,23.59-7.2,29.53-13.7L61,57.53c-7.19,7.52-14.42,11-22.71,11-15.93,0-28.41-13.2-28.41-30.06S22,8.29,37.56,8.29c11,0,18.11,5.59,23.1,10.71l6-6.41C55.93,1.45,45.57,0,37.71,0Z"/><path class="cls-1" d="M32.73,47.81h6L52.51,61.45A41.38,41.38,0,0,0,59,55.88l-10.5-10a14.34,14.34,0,0,0,8.9-13.5c0-8.92-6.8-15.22-18.52-15.22H23.81v44.2a25,25,0,0,0,6.46,3.28,22.91,22.91,0,0,0,2.46.53Zm.17-23.19H39c5.44,0,9,2.94,9,7.84s-3.61,7.83-9,7.83H32.9Z"/><path class="cls-2" d="M70.66,39.07a9.21,9.21,0,0,1,9.45-9.34,8.67,8.67,0,0,1,7.53,3.8L84,36.35a4.78,4.78,0,0,0-3.94-2.08c-2.51,0-4.28,2.13-4.28,4.8s1.77,4.79,4.28,4.79a4.9,4.9,0,0,0,4-2.18l3.73,2.67a9,9,0,0,1-7.93,4A9.12,9.12,0,0,1,70.66,39.07Z"/><path class="cls-2" d="M89.17,44c0-2.88,2.18-4.36,5.43-4.36a10.68,10.68,0,0,1,3.33.53V40c0-1.43-.9-2.25-2.76-2.25a9.72,9.72,0,0,0-3.82.77l-1-3.44A13.92,13.92,0,0,1,96,34c2.48,0,4.17.59,5.27,1.69a5.83,5.83,0,0,1,1.49,4.42v8H97.91V46.61a5.24,5.24,0,0,1-4.08,1.74C91.2,48.35,89.17,46.84,89.17,44ZM98,43v-.64A5,5,0,0,0,96.09,42c-1.41,0-2.23.69-2.23,1.77a1.53,1.53,0,0,0,1.72,1.51A2.23,2.23,0,0,0,98,43Z"/><path class="cls-2" d="M105.42,34.17h4.86V36a5.1,5.1,0,0,1,4.2-2.15c3.3,0,6.15,2.74,6.15,7.23s-2.85,7.26-6.12,7.26a5.22,5.22,0,0,1-4.23-2v5.8h-4.86Zm10.42,6.9a2.85,2.85,0,1,0-5.66,0,2.85,2.85,0,1,0,5.66,0Z"/><path class="cls-2" d="M122.75,29.32h5.07v3.59h-5.07Zm.11,4.85h4.86V48h-4.86Z"/><path class="cls-2" d="M131.26,43.74V38.09h-1.64V34.17h1.64V30.65h4.86v3.52h3.23v3.92h-3.23v4.7c0,1,.44,1.38,1.34,1.38a4.31,4.31,0,0,0,1.84-.46v3.82a6.89,6.89,0,0,1-3.38.8C133,48.33,131.26,47,131.26,43.74Z"/><path class="cls-2" d="M140.85,44c0-2.88,2.17-4.36,5.43-4.36a10.74,10.74,0,0,1,3.33.53V40c0-1.43-.9-2.25-2.77-2.25a9.72,9.72,0,0,0-3.82.77L142,35a13.87,13.87,0,0,1,5.6-1.08c2.49,0,4.18.59,5.28,1.69a5.83,5.83,0,0,1,1.48,4.42v8h-4.81V46.61a5.22,5.22,0,0,1-4.07,1.74C142.87,48.35,140.85,46.84,140.85,44Zm8.81-1v-.64a5,5,0,0,0-1.9-.36c-1.41,0-2.23.69-2.23,1.77a1.53,1.53,0,0,0,1.72,1.51A2.23,2.23,0,0,0,149.66,43Z"/><path class="cls-2" d="M157.15,29.32H162V48h-4.86Z"/><path class="cls-2" d="M165.17,30.09h8.48c2.74,0,4.63.72,5.84,1.92a5.71,5.71,0,0,1,1.58,4.26,5.69,5.69,0,0,1-3.68,5.52L181.66,48h-5.73l-3.61-5.43h-2.18V48h-5Zm8.25,8.62c1.69,0,2.66-.82,2.66-2.18s-1-2.13-2.69-2.13h-3.25v4.31Z"/><path class="cls-2" d="M182.67,41.12a7,7,0,0,1,7-7.26c4.79,0,7,3.51,7,7.59,0,.31,0,.67,0,1h-9.27a2.85,2.85,0,0,0,3,2.29,4.17,4.17,0,0,0,3.08-1.42l2.69,2.24a7.28,7.28,0,0,1-6,2.82C185.74,48.38,182.67,45.48,182.67,41.12ZM192.09,40c-.18-1.54-1.07-2.51-2.4-2.51s-2.15,1-2.41,2.51Z"/><path class="cls-2" d="M198.81,34.17h4.87v1.95a5.12,5.12,0,0,1,4.15-2.26c2.94,0,4.71,2,4.71,5.1V48h-4.87V40.53c0-1.51-.79-2.34-1.94-2.34a2.06,2.06,0,0,0-2,2.34V48.4h-4.87Z"/><path class="cls-2" d="M215.91,43.74V38.09h-1.64V34.17h1.64V30.65h4.86v3.52H224v3.92h-3.23v4.7c0,1,.44,1.38,1.34,1.38a4.31,4.31,0,0,0,1.84-.46v3.82a6.89,6.89,0,0,1-3.38.8C217.65,48.33,215.91,47,215.91,43.74Z"/><text class="cls-3" transform="translate(156.84 60.58)">н<tspan class="cls-4" x="5.69" y="0">е</tspan><tspan class="cls-5" x="10.97" y="0">дв</tspan><tspan class="cls-6" x="21.67" y="0">иж</tspan><tspan class="cls-7" x="34.54" y="0">им</tspan><tspan class="cls-6" x="47.09" y="0">о</tspan><tspan class="cls-8" x="52.86" y="0">с</tspan><tspan class="cls-9" x="57.74" y="0">т</tspan><tspan class="cls-10" x="61.99" y="0">ь</tspan><tspan class="cls-11"><tspan x="12.47" y="10.8">д</tspan><tspan class="cls-12" x="18.26" y="10.8">л</tspan><tspan class="cls-13" x="23.57" y="10.8">я б</tspan><tspan class="cls-14" x="36.38" y="10.8">и</tspan><tspan class="cls-15" x="42.09" y="10.8">зн</tspan><tspan class="cls-16" x="52.24" y="10.8">е</tspan><tspan class="cls-10" x="57.51" y="10.8">са</tspan></tspan></text></svg>