<svg id="Слой_1" data-name="Слой 1" xmlns="http://www.w3.org/2000/svg" width="212" height="65" viewBox="0 0 212 65"><defs><style>.cls-1{fill:#191919;}.cls-2{fill:#df3621;}</style></defs><path class="cls-1" d="M82.32,22.81v4a9.42,9.42,0,0,0-6.08-2.47,7.76,7.76,0,0,0-5.84,2.5A8.46,8.46,0,0,0,68,33a8.26,8.26,0,0,0,2.38,6,7.89,7.89,0,0,0,5.85,2.44,7.13,7.13,0,0,0,3-.59A8.38,8.38,0,0,0,80.74,40a16.13,16.13,0,0,0,1.58-1.2v4.11a12.22,12.22,0,0,1-6.11,1.65A11.54,11.54,0,0,1,64.6,33a11.66,11.66,0,0,1,2.84-7.69,11.26,11.26,0,0,1,9-4.13A11.43,11.43,0,0,1,82.32,22.81Z"/><path class="cls-1" d="M96.2,29.93h3.29V44.16H96.2V42.67A6.27,6.27,0,0,1,87,42.44,8,8,0,0,1,85.09,37,7.7,7.7,0,0,1,87,31.67a6.12,6.12,0,0,1,4.78-2.14,6,6,0,0,1,4.43,2ZM88.43,37a4.93,4.93,0,0,0,1.1,3.33,3.55,3.55,0,0,0,2.82,1.31,3.75,3.75,0,0,0,2.94-1.26,5.44,5.44,0,0,0,0-6.61,3.7,3.7,0,0,0-2.91-1.27,3.62,3.62,0,0,0-2.83,1.29A4.75,4.75,0,0,0,88.43,37Z"/><path class="cls-1" d="M105.79,51.91h-3.27v-22h3.27v1.55a6,6,0,0,1,4.39-1.95A6.1,6.1,0,0,1,115,31.7a7.83,7.83,0,0,1,1.92,5.42A7.71,7.71,0,0,1,115,42.45a6.19,6.19,0,0,1-9.22.12Zm7.78-14.78a5,5,0,0,0-1.1-3.33,3.56,3.56,0,0,0-2.82-1.3,3.73,3.73,0,0,0-2.93,1.26,4.75,4.75,0,0,0-1.12,3.3,4.85,4.85,0,0,0,1.12,3.3,3.68,3.68,0,0,0,2.91,1.28,3.54,3.54,0,0,0,2.81-1.29A4.72,4.72,0,0,0,113.57,37.13Z"/><path class="cls-1" d="M119.42,23.48a2.14,2.14,0,0,1,4.27,0,2.08,2.08,0,0,1-.63,1.52,2,2,0,0,1-1.5.62,2.13,2.13,0,0,1-2.14-2.16Zm3.77,6.7v14h-3.27v-14Z"/><path class="cls-1" d="M131.64,33V44.16h-3.27V33H127V29.93h1.4V21.6h3.27v8.33h2.55V33Z"/><path class="cls-1" d="M147,29.93h3.28V44.16H147V42.67a6.27,6.27,0,0,1-9.21-.23A8,8,0,0,1,135.84,37a7.71,7.71,0,0,1,1.91-5.33,6.11,6.11,0,0,1,4.77-2.14,6,6,0,0,1,4.44,2ZM139.19,37a4.93,4.93,0,0,0,1.09,3.33,3.56,3.56,0,0,0,2.82,1.31A3.75,3.75,0,0,0,146,40.38a4.88,4.88,0,0,0,1.12-3.31,4.87,4.87,0,0,0-1.12-3.3,3.7,3.7,0,0,0-2.91-1.27,3.59,3.59,0,0,0-2.82,1.29A4.71,4.71,0,0,0,139.19,37Z"/><path class="cls-1" d="M156.53,21.6V44.16h-3.27V21.6Z"/><path class="cls-1" d="M166.87,34.55l7,9.61h-4.15l-6.42-9.23h-.61v9.23h-3.39V21.6h4c3,0,5.11.56,6.43,1.68a6.18,6.18,0,0,1,2.18,4.94,6.43,6.43,0,0,1-1.37,4.12A6.12,6.12,0,0,1,166.87,34.55ZM162.65,32h1.08q4.82,0,4.82-3.7c0-2.31-1.57-3.46-4.69-3.46h-1.21Z"/><path class="cls-1" d="M187.64,37.82H177.48a4.34,4.34,0,0,0,1.14,2.79,3.45,3.45,0,0,0,2.57,1,3.31,3.31,0,0,0,2-.59A8.22,8.22,0,0,0,185,38.89l2.77,1.55a10.88,10.88,0,0,1-1.36,1.87,7,7,0,0,1-1.52,1.29,6.21,6.21,0,0,1-1.76.74,8.88,8.88,0,0,1-2,.23,6.67,6.67,0,0,1-5.1-2,7.72,7.72,0,0,1-1.92-5.47,7.9,7.9,0,0,1,1.87-5.47,7.06,7.06,0,0,1,9.92-.05,7.9,7.9,0,0,1,1.8,5.51Zm-3.36-2.69A3.15,3.15,0,0,0,181,32.5a3.46,3.46,0,0,0-1.12.18A3.28,3.28,0,0,0,178.17,34a3.89,3.89,0,0,0-.47,1.1Z"/><path class="cls-1" d="M190.06,29.93h3.29v1.31a5.36,5.36,0,0,1,3.87-1.71,4.88,4.88,0,0,1,3.86,1.57,6.43,6.43,0,0,1,1.19,4.34v8.72H199V36.21a5.24,5.24,0,0,0-.58-2.91,2.36,2.36,0,0,0-2.07-.81A2.53,2.53,0,0,0,194,33.57a7.4,7.4,0,0,0-.67,3.72v6.87h-3.29Z"/><path class="cls-1" d="M209.45,33V44.16h-3.27V33h-1.4V29.93h1.4V21.6h3.27v8.33H212V33Z"/><path class="cls-2" d="M35.52,35.65l-7.92.68L47,61.3a30.39,30.39,0,0,0,5.43-3.73Z"/><path class="cls-1" d="M40.38,57.12a24.63,24.63,0,0,1-8,1.33,26,26,0,0,1,0-51.9,24.26,24.26,0,0,1,16.81,6.63l4.21-5A30.7,30.7,0,0,0,32.35,0a32.5,32.5,0,0,0,0,65,31.11,31.11,0,0,0,12.24-2.47Z"/><path class="cls-2" d="M46.55,27.09c0-7.31-5.06-13.29-12.34-13.29H19.64a22.64,22.64,0,0,0-6.31,6.55H34.21a6.75,6.75,0,0,1,0,13.49H9.65A22.93,22.93,0,0,0,11,40.39H34.21C41.49,40.39,46.55,34.41,46.55,27.09Z"/></svg>