<svg id="Слой_1" data-name="Слой 1" xmlns="http://www.w3.org/2000/svg" xmlns:xlink="http://www.w3.org/1999/xlink" width="16.03" height="16.55" viewBox="0 0 16.03 16.55"><defs><style>.cls-1{fill:none;}.cls-2{clip-path:url(#clip-path);}</style><clipPath id="clip-path" transform="translate(0 -0.1)"><rect class="cls-1" width="16" height="17"/></clipPath></defs><g class="cls-2"><path d="M15.78,15.17l-3.95-4.09A6.71,6.71,0,1,0,6.7,13.46a6.58,6.58,0,0,0,3.84-1.21l4,4.13a.88.88,0,0,0,1.24,0,.87.87,0,0,0,0-1.24ZM6.7,1.84A4.94,4.94,0,1,1,1.75,6.78a5,5,0,0,1,5-4.94Zm0,0" transform="translate(0 -0.1)"/></g></svg>