<svg id="Слой_1" data-name="Слой 1" xmlns="http://www.w3.org/2000/svg" width="54" height="55" viewBox="0 0 54 55"><defs><style>.cls-1{fill:#5e81ac;}.cls-2{fill:none;}.cls-3{fill:#ea5c57;}</style></defs><path class="cls-1" d="M53.93,15.36,50.33.74a.91.91,0,0,0-.87-.7H4.5a.91.91,0,0,0-.88.7L0,15.36a.91.91,0,0,0,.16.78.9.9,0,0,0,.71.35H3.6V54a.9.9,0,0,0,.9.91h45a.9.9,0,0,0,.9-.91V16.49h2.7a.9.9,0,0,0,.71-.35.91.91,0,0,0,.16-.78ZM13.49,53H9V40.7a2.25,2.25,0,1,1,4.5,0Zm20.68,0H19.78V45.73a7.2,7.2,0,1,1,14.39,0ZM45,53H40.47V40.7a2.25,2.25,0,1,1,4.49,0Zm3.6,0h-1.8V40.7a4,4,0,1,0-8.09,0V53H36V45.73a9,9,0,1,0-18,0V53h-2.7V40.7a4.05,4.05,0,1,0-8.1,0V53H5.4V16.49H48.56Zm.9-38.38H2.05L5.2,1.87H48.76l3.15,12.79Zm0,0"/><rect class="cls-2" width="54" height="55"/><path class="cls-3" d="M18,18.32H8.09a.91.91,0,0,0-.9.91v5.49a.91.91,0,0,0,.9.91H18a.91.91,0,0,0,.9-.91V19.23a.91.91,0,0,0-.9-.91Zm-.9,5.48H9V20.15h8.1Zm0,0"/><path class="cls-3" d="M18,27.46H8.09a.91.91,0,0,0-.9.91v5.48a.91.91,0,0,0,.9.92H18a.91.91,0,0,0,.9-.92V28.37a.91.91,0,0,0-.9-.91Zm-.9,5.48H9V29.28h8.1Zm0,0"/><path class="cls-3" d="M45.86,18.32H36a.91.91,0,0,0-.9.91v5.49a.91.91,0,0,0,.9.91h9.89a.9.9,0,0,0,.9-.91V19.23a.9.9,0,0,0-.9-.91ZM45,23.8H36.87V20.15H45Zm0,0"/><path class="cls-3" d="M45.86,27.46H36a.91.91,0,0,0-.9.91v5.48a.91.91,0,0,0,.9.92h9.89a.91.91,0,0,0,.9-.92V28.37a.9.9,0,0,0-.9-.91ZM45,32.94H36.87V29.28H45Zm0,0"/><path class="cls-3" d="M32.37,27.46H21.58a.91.91,0,0,0-.9.91v5.48a.91.91,0,0,0,.9.92H32.37a.91.91,0,0,0,.9-.92V28.37a.9.9,0,0,0-.9-.91Zm-.89,5.48h-9V29.28h9Zm0,0"/><path class="cls-3" d="M32.37,18.32H21.58a.91.91,0,0,0-.9.91v5.49a.91.91,0,0,0,.9.91H32.37a.9.9,0,0,0,.9-.91V19.23a.9.9,0,0,0-.9-.91Zm-.89,5.48h-9V20.15h9Zm0,0"/></svg>