<svg id="Слой_1" data-name="Слой 1" xmlns="http://www.w3.org/2000/svg" width="59" height="59" viewBox="0 0 59 59"><defs><style>.cls-1{fill:#ea5c57;}.cls-2{fill:#5e81ac;}</style></defs><path class="cls-1" d="M56.05,53.1a2.92,2.92,0,0,0-.51,0,3.92,3.92,0,0,0-6.85,0,2.92,2.92,0,0,0-.51,0,3,3,0,0,0-3,2.95,2.89,2.89,0,0,0,.18,1H41.3v-5.9h4.92a1,1,0,0,0,1-1V10.82a1,1,0,0,0-1-1H16.72a1,1,0,0,0-1,1V58a1,1,0,0,0,1,1H56.05a2.95,2.95,0,1,0,0-5.9ZM41.3,11.8h3.93v5.9H41.3Zm0,7.87h3.93v5.9H41.3Zm0,7.86h3.93v5.9H41.3Zm0,7.87h3.93v5.9H41.3Zm0,7.87h3.93v5.9H41.3ZM21.63,57H17.7v-5.9h3.93Zm0-7.86H17.7v-5.9h3.93Zm0-7.87H17.7V35.4h3.93Zm0-7.87H17.7v-5.9h3.93Zm0-7.86H17.7v-5.9h3.93Zm0-7.87H17.7V11.8h3.93ZM27.53,57H23.6v-5.9h3.93Zm0-7.86H23.6v-5.9h3.93Zm0-7.87H23.6V35.4h3.93Zm0-7.87H23.6v-5.9h3.93Zm0-7.86H23.6v-5.9h3.93Zm0-7.87H23.6V11.8h3.93ZM33.43,57H29.5v-5.9h3.93Zm0-7.86H29.5v-5.9h3.93Zm0-7.87H29.5V35.4h3.93Zm0-7.87H29.5v-5.9h3.93Zm0-7.86H29.5v-5.9h3.93Zm0-7.87H29.5V11.8h3.93ZM39.33,57H35.4v-5.9h3.93Zm0-7.86H35.4v-5.9h3.93Zm0-7.87H35.4V35.4h3.93Zm0-7.87H35.4v-5.9h3.93Zm0-7.86H35.4v-5.9h3.93Zm0-7.87H35.4V11.8h3.93ZM56.05,57H48.18a1,1,0,1,1,.54-1.8,1,1,0,0,0,.9.08,1,1,0,0,0,.59-.69,2,2,0,0,1,3.82,0,1,1,0,0,0,.58.69,1,1,0,0,0,.91-.08,1,1,0,0,1,1.51.82,1,1,0,0,1-1,1Zm0,0"/><path class="cls-2" d="M21.63,6.88V3.93h6.89a1,1,0,0,0,1-1V2h3.93V3a1,1,0,0,0,1,1H41.3v2H24.58a1,1,0,0,0,0,2H49.17V48.65a1,1,0,1,0,2,0V6.88a1,1,0,0,0-1-1H43.27V3a1,1,0,0,0-1-1H35.4V1a1,1,0,0,0-1-1h-5.9a1,1,0,0,0-1,1V2H20.65a1,1,0,0,0-1,1v3H12.78a1,1,0,0,0-1,1V57H5.9V53a4.92,4.92,0,0,0,3.93-4.82c0-.13-.05-12.78-4.91-12.78S0,48.06,0,48.18A4.92,4.92,0,0,0,3.93,53v4H1a1,1,0,0,0,0,2h11.8a1,1,0,0,0,1-1V7.87h6.88a1,1,0,0,0,1-1ZM2,48.18c0-4.9,1.31-10.81,3-10.81s3,5.91,3,10.81a3,3,0,0,1-5.9,0Zm0,0"/></svg>