<svg id="Слой_1" data-name="Слой 1" xmlns="http://www.w3.org/2000/svg" width="106" height="106" viewBox="0 0 106 106"><defs><style>.cls-1{fill:#ea5c57;}.cls-2{fill:#5e81ac;}</style></defs><path class="cls-1" d="M49.64,37.09c-.11,1.64-.17,3.4-.17,5.31,0,8.85,2.64,14.13,7.06,14.13,5.58,0,7.07-6.66,7.07-10.6a1.77,1.77,0,0,0-3.53,0c0,.07-.16,7.07-3.54,7.07C54.48,53,53,48.54,53,42.4c0-20.6,7.23-22.94,7.46-23a1.76,1.76,0,0,0-.74-3.45,7.34,7.34,0,0,0-3.17,1.72,3.52,3.52,0,1,1,5.28,3.07,1.76,1.76,0,0,0-.64,2.41,1.78,1.78,0,0,0,2.41.65,7.06,7.06,0,0,0-1.71-12.95,7,7,0,0,0-8.06,10.09c-1.52,2.47-2.93,6.14-3.72,11.6A17.4,17.4,0,1,1,58,38a1.77,1.77,0,0,0-1.12,3.35,21.47,21.47,0,1,0-7.23-4.22Zm0,0"/><path class="cls-1" d="M105.48,51.75,87.13,33.4a1.76,1.76,0,1,0-2.49,2.5l17.83,17.83v6.34H96.13l-.73-.73V54.77A1.77,1.77,0,0,0,93.63,53H91.87V51.23a1.76,1.76,0,0,0-1.77-1.76H85.53l-.73-.74V44.17A1.77,1.77,0,0,0,83,42.4H78.46l-.17-.17a1.76,1.76,0,1,0-2.49,2.5l.68.69a1.78,1.78,0,0,0,1.25.51h3.54v3.53a1.76,1.76,0,0,0,.51,1.25l1.77,1.77A1.77,1.77,0,0,0,84.8,53h3.53v1.77a1.77,1.77,0,0,0,1.77,1.76h1.77v3.54a1.8,1.8,0,0,0,.51,1.25l1.77,1.76a1.77,1.77,0,0,0,1.25.52h8.83A1.77,1.77,0,0,0,106,61.83V53a1.77,1.77,0,0,0-.52-1.25Zm0,0"/><path class="cls-2" d="M10.6,30a1.77,1.77,0,0,0,1.77,1.77h1.76V42.4H12.37a1.77,1.77,0,1,0,0,3.53h1.76v10.6H12.37a1.77,1.77,0,1,0,0,3.54h1.76v10.6H12.37a1.77,1.77,0,1,0,0,3.53h1.76V84.8H12.37a1.77,1.77,0,1,0,0,3.53h1.76v8.84a1.77,1.77,0,0,0,3.54,0V88.33h7.06v8.84a1.77,1.77,0,0,0,3.54,0V88.33h7.06v8.84a1.77,1.77,0,0,0,3.54,0V88.33h7.06v8.84a1.77,1.77,0,0,0,3.54,0V88.33h1.76a1.77,1.77,0,1,0,0-3.53H49.47V74.2h1.76a1.77,1.77,0,1,0,0-3.53H49.47V60.07a1.77,1.77,0,0,0,0-3.54,1.77,1.77,0,0,0-3.54,0H38.87V45.93h5.3a1.77,1.77,0,0,0,0-3.53h-5.3V31.8h.88a1.77,1.77,0,1,0,0-3.53H12.37A1.76,1.76,0,0,0,10.6,30Zm28.27,30h7.06v10.6H38.87Zm0,14.13h7.06V84.8H38.87ZM28.27,31.8h7.06V42.4H28.27Zm0,14.13h7.06v10.6H28.27Zm0,14.14h7.06v10.6H28.27Zm0,14.13h7.06V84.8H28.27ZM17.67,31.8h7.06V42.4H17.67Zm0,14.13h7.06v10.6H17.67Zm0,14.14h7.06v10.6H17.67Zm0,14.13h7.06V84.8H17.67Zm0,0"/><path class="cls-2" d="M37.1,24.73a1.77,1.77,0,1,0,0-3.53H26.5a1.77,1.77,0,1,0,0,3.53Zm0,0"/><path class="cls-2" d="M104.23,102.47H77.73V95.22a8.85,8.85,0,0,0,7.07-8.65c0-.23-.1-23-8.83-23s-8.84,22.74-8.84,23a8.85,8.85,0,0,0,7.07,8.65v7.25H60.07V61.83a1.77,1.77,0,0,0-3.54,0v40.64H7.07V24.73H19.43A1.76,1.76,0,0,0,21.2,23v-5.3H37.1a1.77,1.77,0,0,0,0-3.54H19.43a1.76,1.76,0,0,0-1.76,1.77v5.3H5.3A1.77,1.77,0,0,0,3.53,23v79.5H1.77a1.77,1.77,0,1,0,0,3.53H104.23a1.77,1.77,0,1,0,0-3.53ZM70.67,86.57c0-8.81,2.36-19.44,5.3-19.44s5.3,10.63,5.3,19.44a5.3,5.3,0,0,1-10.6,0Zm0,0"/></svg>