<svg id="Слой_1" data-name="Слой 1" xmlns="http://www.w3.org/2000/svg" width="58" height="56" viewBox="0 0 58 56"><defs><style>.cls-1{fill:#5e81ac;}.cls-2{fill:#ea5c57;}</style></defs><path class="cls-1" d="M57.39,31.16A1.21,1.21,0,0,0,58,30.11V25.56a1.18,1.18,0,0,0-.28-.77L54.13,20a1.19,1.19,0,0,0-1-.49H35.83a10.87,10.87,0,1,0-13.66,0H4.83a1.19,1.19,0,0,0-1,.49L.24,24.83l0,0,0,0A.41.41,0,0,0,.15,25v0a.21.21,0,0,0,0,.06s0,0,0,0l0,.07v0s0,.06,0,.1v0s0,.05,0,.08v0a.37.37,0,0,0,0,.11H0v4.55a1.23,1.23,0,0,0,.6,1.05,3.71,3.71,0,0,0,.61.28V53.57a1.22,1.22,0,0,0,0,2.43H56.79a1.22,1.22,0,0,0,0-2.43V31.44A3.28,3.28,0,0,0,57.39,31.16Zm-4.22-4.38A1.22,1.22,0,0,0,52,28a1.21,1.21,0,1,1-2.42,0,1.21,1.21,0,1,0-2.41,0,1.21,1.21,0,1,1-2.42,0,1.21,1.21,0,1,0-2.42,0,1.21,1.21,0,1,1-2.41,0,1.21,1.21,0,1,0-2.42,0A1.21,1.21,0,1,1,35,28a1.21,1.21,0,1,0-2.41,0,1.21,1.21,0,1,1-2.42,0,1.21,1.21,0,1,0-2.42,0,1.21,1.21,0,1,1-2.41,0A1.21,1.21,0,1,0,23,28a1.21,1.21,0,1,1-2.42,0,1.21,1.21,0,1,0-2.41,0,1.21,1.21,0,1,1-2.42,0,1.21,1.21,0,1,0-2.42,0,1.21,1.21,0,1,1-2.42,0,1.21,1.21,0,1,0-2.41,0A1.21,1.21,0,1,1,6,28a1.21,1.21,0,1,0-2.42,0,1.21,1.21,0,0,1-1.2,1.22V26.78H55.58v2.44A1.21,1.21,0,0,1,54.38,28,1.22,1.22,0,0,0,53.17,26.78ZM20.54,11A8.46,8.46,0,1,1,29,19.48,8.5,8.5,0,0,1,20.54,11Zm-15.1,11H52.56l1.82,2.44H3.63Zm3,31.66v-17h7.25v17Zm9.67,0V35.3a1.21,1.21,0,0,0-1.21-1.21H7.25A1.21,1.21,0,0,0,6,35.3V53.57H3.63V31.44a3.4,3.4,0,0,0,1.2-.72,3.61,3.61,0,0,0,4.84,0,3.6,3.6,0,0,0,4.83,0,3.6,3.6,0,0,0,4.83,0,3.61,3.61,0,0,0,4.84,0,3.6,3.6,0,0,0,4.83,0,3.6,3.6,0,0,0,4.83,0,3.61,3.61,0,0,0,4.84,0,3.6,3.6,0,0,0,4.83,0,3.6,3.6,0,0,0,4.83,0,3.61,3.61,0,0,0,4.84,0,3.4,3.4,0,0,0,1.2.72V53.57Z"/><path class="cls-2" d="M50.75,34.09h-29a1.21,1.21,0,0,0-1.21,1.21V49.91a1.22,1.22,0,0,0,1.21,1.22h29A1.22,1.22,0,0,0,52,49.91V35.3A1.21,1.21,0,0,0,50.75,34.09ZM49.54,48.7H23V36.52H49.54V48.7Z"/><path class="cls-1" d="M46.87,44.79,45.67,46a1.21,1.21,0,0,0,0,1.72,1.18,1.18,0,0,0,1.7,0l1.21-1.22a1.21,1.21,0,0,0-1.71-1.72Z"/><path class="cls-1" d="M42.29,47.48a1.21,1.21,0,0,0,.86-.36L48,42.25a1.21,1.21,0,0,0-1.71-1.72L41.44,45.4a1.23,1.23,0,0,0,0,1.72A1.17,1.17,0,0,0,42.29,47.48Z"/><path class="cls-2" d="M36.13,7.4a1.19,1.19,0,0,0-.08-1,1.23,1.23,0,0,0-.76-.6l-3.57-.93a1,1,0,0,0-.3,0H30.8a1.22,1.22,0,0,0-1.21,1.22.61.61,0,1,1-1.21,0,1.22,1.22,0,0,0-1.21-1.22h-.62a1,1,0,0,0-.3,0l-3.57.93a1.21,1.21,0,0,0-.76.6,1.23,1.23,0,0,0-.09,1l.93,2.85a1.21,1.21,0,0,0,1.37.82v4.76A1.21,1.21,0,0,0,25.34,17h7.28a1.21,1.21,0,0,0,1.21-1.21V11.07a1.21,1.21,0,0,0,1.37-.82Zm-2.86,1L33,8.28a1.19,1.19,0,0,0-1.06.19,1.2,1.2,0,0,0-.48,1v5.16H26.55V9.45a1.23,1.23,0,0,0-.48-1A1.2,1.2,0,0,0,25,8.28l-.31.09-.16-.5,1.74-.45a3,3,0,0,0,5.43,0l1.74.45Z"/></svg>