<svg id="Слой_1" data-name="Слой 1" xmlns="http://www.w3.org/2000/svg" xmlns:xlink="http://www.w3.org/1999/xlink" width="18" height="11.9" viewBox="0 0 18 11.9"><defs><style>.cls-1{fill:none;}.cls-2{clip-path:url(#clip-path);}.cls-3{fill:#9f9f9f;}</style><clipPath id="clip-path" transform="translate(0 -0.03)"><rect class="cls-1" width="18" height="12"/></clipPath></defs><g class="cls-2"><path class="cls-3" d="M17.57,4.78H16.44V3.63A.44.44,0,0,0,16,3.19H14.49a.44.44,0,0,0-.43.44V4.78H12.93a.44.44,0,0,0-.43.44V6.77a.43.43,0,0,0,.43.44h1.13V8.36a.43.43,0,0,0,.43.44H16a.43.43,0,0,0,.43-.44V7.21h1.13A.43.43,0,0,0,18,6.77V5.22a.44.44,0,0,0-.43-.44Zm0,0" transform="translate(0 -0.03)"/><path class="cls-3" d="M5.82,2.88a2.72,2.72,0,0,1,1.45.41l.48.34a.43.43,0,0,0,.55,0L9.72,2.15a.46.46,0,0,0,.12-.35.44.44,0,0,0-.18-.32L8.83.9l-.05,0L8,.47l0,0A5.89,5.89,0,0,0,5.79,0,5.72,5.72,0,0,0,1.73,1.72,6,6,0,0,0,0,5.94a6,6,0,0,0,1.68,4.24A5.91,5.91,0,0,0,5.9,11.93,5.5,5.5,0,0,0,10,10.21a5.63,5.63,0,0,0,1.42-3.33V5.66a.22.22,0,0,0,0-.08l-.06-.4a.45.45,0,0,0-.43-.37H6a.44.44,0,0,0-.43.44V7A.44.44,0,0,0,6,7.43H8.48A3.08,3.08,0,0,1,8,8.21a2.78,2.78,0,0,1-2.06.88,3,3,0,0,1-2.16-.9,3.28,3.28,0,0,1,0-4.44,2.88,2.88,0,0,1,2.06-.87Zm0,0" transform="translate(0 -0.03)"/></g></svg>