<svg id="Слой_1" data-name="Слой 1" xmlns="http://www.w3.org/2000/svg" width="33" height="33" viewBox="0 0 33 33"><defs><style>.cls-1{fill:#44678d;}.cls-2{fill:#fff;}</style></defs><rect class="cls-1" width="33" height="33"/><path class="cls-2" d="M8.55,10a21.49,21.49,0,0,0,3.11,5.45,3.15,3.15,0,0,0,.63.58.48.48,0,0,0,.8-.24,7.32,7.32,0,0,0,.29-1.66c0-1.12,0-1.86-.07-3A1.45,1.45,0,0,0,12,9.66c-.33-.06-.36-.32-.15-.59a2.09,2.09,0,0,1,1.7-.68c1.06-.06,2.13,0,3.2,0a6.37,6.37,0,0,1,1.3.13A1.19,1.19,0,0,1,19,9.58a4.07,4.07,0,0,1,.07.85c0,1.22-.09,2.45-.1,3.67a6.24,6.24,0,0,0,.13,1.43c.14.65.59.82,1,.35a17.31,17.31,0,0,0,1.56-2,19.48,19.48,0,0,0,2.06-4C24,9.2,24.23,9,25,9H29.4a2.57,2.57,0,0,1,.78.1.67.67,0,0,1,.46.86,7.31,7.31,0,0,1-1.3,2.58c-.89,1.26-1.83,2.5-2.75,3.75a5.29,5.29,0,0,0-.32.5,1,1,0,0,0,.18,1.48c.8.82,1.65,1.59,2.42,2.43a15.38,15.38,0,0,1,1.53,2,1.13,1.13,0,0,1-.84,1.88c-.66.09-3.88,0-4,0a3.21,3.21,0,0,1-2.24-.9c-.68-.65-1.3-1.37-1.95-2.06a6.75,6.75,0,0,0-.63-.57c-.54-.41-1.06-.32-1.31.31A12.64,12.64,0,0,0,19,23.45a1.1,1.1,0,0,1-1.15,1.08,10.89,10.89,0,0,1-5.88-1.11A12.45,12.45,0,0,1,8.05,20a41.46,41.46,0,0,1-4.32-7.09c-.06-.13-1.32-2.8-1.35-2.93a.75.75,0,0,1,.35-1C3,9,7.09,9,7.16,9a1.46,1.46,0,0,1,1.39,1Zm0,0"/></svg>